<svg width="307" height="307" viewBox="0 0 307 307" fill="none" xmlns="http://www.w3.org/2000/svg">
<path fill-rule="evenodd" clip-rule="evenodd" d="M164.464 0H142.536V97.0935L106.164 7.06993L85.832 15.2845L123.146 107.64L52.7121 37.2061L37.2062 52.7121L104.714 120.22L17.229 81.9968L8.44955 102.091L101.019 142.536H0V164.464H101.019L8.44958 204.909L17.229 225.003L104.714 186.78L37.2062 254.288L52.7121 269.793L123.146 199.36L85.832 291.716L106.164 299.93L142.536 209.907V307H164.464V209.907L200.836 299.93L221.167 291.716L183.855 199.36L254.288 269.793L269.793 254.288L202.285 186.78L289.771 225.003L298.55 204.909L205.982 164.464H307V142.536H205.98L298.55 102.091L289.771 81.9968L202.285 120.22L269.793 52.7119L254.288 37.2061L183.855 107.64L221.167 15.2845L200.836 7.06993L164.464 97.0935V0Z" fill="#FE5B24"/>
</svg>
